<?xml version="1.0" encoding="utf-8"?>
<!-- Generator: Adobe Illustrator 19.0.0, SVG Export Plug-In . SVG Version: 6.00 Build 0)  -->
<svg version="1.1" xmlns="http://www.w3.org/2000/svg" xmlns:xlink="http://www.w3.org/1999/xlink" x="0px" y="0px"
	 viewBox="-280 153 463 463" style="enable-background:new -280 153 463 463;" xml:space="preserve">
<style type="text/css">
	.st0{display:none;}
	.st1{display:inline;}
	.st2{fill:#FFFFFF;}
	.st3{font-family:'Calibri-Bold';}
	.st4{font-size:326.8603px;}
</style>
<g id="Capa_1" class="st0">
	<g class="st1">
		<path class="st2" d="M-20.5,433.4v-32.9c0-13-10.5-23.5-23.5-23.5s-23.5,10.5-23.5,23.5v29.7c0,35.8-13.2,70.1-37.1,96.7l-33,36.6
			c-2.8,3.1-2.5,7.8,0.6,10.6c3.1,2.8,7.8,2.5,10.6-0.6l33-36.6c26.4-29.3,40.9-67.2,40.9-106.7v-29.7c0-4.7,3.8-8.5,8.5-8.5
			s8.5,3.8,8.5,8.5v32.9c0,44-16.3,86.2-45.9,118.7l-32.1,35.4c-2.8,3.1-2.6,7.8,0.5,10.6c1.4,1.3,3.2,1.9,5,1.9
			c2,0,4.1-0.8,5.6-2.5l32.1-35.4C-38.2,526.9-20.5,481.1-20.5,433.4z"/>
		<path class="st2" d="M11.5,400.5c0-30.6-24.9-55.5-55.5-55.5s-55.5,24.9-55.5,55.5v29.7c0,27.8-10.3,54.6-28.9,75.3l-23.4,26.1
			c-2.8,3.1-2.5,7.8,0.6,10.6c3.1,2.8,7.8,2.5,10.6-0.6l23.4-26.1c21.1-23.5,32.7-53.7,32.7-85.3v-29.7c0-22.3,18.2-40.5,40.5-40.5
			s40.5,18.2,40.5,40.5v32.9c0,52-19.3,101.8-54.2,140.3l-27.1,29.8c-2.8,3.1-2.6,7.8,0.5,10.6c1.4,1.3,3.2,1.9,5,1.9
			c2,0,4.1-0.8,5.6-2.5l27.1-29.8c37.5-41.2,58.1-94.6,58.1-150.3V400.5z"/>
		<path class="st2" d="M43.5,400.5C43.5,352.3,4.2,313-44,313s-87.5,39.3-87.5,87.5v29.7c0,19.9-7.3,39-20.7,53.9l-21.1,23.5
			c-2.8,3.1-2.5,7.8,0.6,10.6c3.1,2.8,7.8,2.5,10.6-0.6l21.1-23.5c15.8-17.6,24.5-40.3,24.5-63.9v-29.7c0-40,32.5-72.5,72.5-72.5
			s72.5,32.5,72.5,72.5v32.9c0,60-22.2,117.4-62.5,161.8l-7.5,8.3c-2.8,3.1-2.6,7.8,0.5,10.6c1.4,1.3,3.2,1.9,5,1.9
			c2,0,4.1-0.8,5.6-2.5l7.5-8.3c42.8-47.1,66.4-108.2,66.4-171.9L43.5,400.5L43.5,400.5z"/>
		<path class="st2" d="M-163.5,400.5c0,4.1,3.4,7.5,7.5,7.5s7.5-3.4,7.5-7.5c0-25.3,9.2-49.7,25.8-68.7
			c16.5-18.9,39.1-31.2,63.7-34.7c4.1-0.6,6.9-4.4,6.4-8.5c-0.6-4.1-4.4-6.9-8.5-6.4c-28.2,4-54.1,18.2-72.9,39.7
			C-153,343.7-163.5,371.6-163.5,400.5z"/>
		<path class="st2" d="M-148.5,430.2c0-4.1-3.4-7.5-7.5-7.5s-7.5,3.4-7.5,7.5c0,12-4.4,23.5-12.4,32.4l-18.8,20.9
			c-2.8,3.1-2.5,7.8,0.6,10.6c1.4,1.3,3.2,1.9,5,1.9c2.1,0,4.1-0.8,5.6-2.5l18.8-20.9C-154.3,461-148.5,445.9-148.5,430.2z"/>
		<path class="st2" d="M60.8,497.1c-4-1-8.1,1.4-9.2,5.4c-2.8,10.6-6.2,21.1-10.2,31.3c-1.5,3.9,0.4,8.2,4.2,9.7
			c0.9,0.4,1.8,0.5,2.8,0.5c3,0,5.8-1.8,7-4.7c4.2-10.7,7.9-21.8,10.8-33C67.2,502.3,64.8,498.2,60.8,497.1z"/>
		<path class="st2" d="M35.8,311.6c-3.1-2.8-7.8-2.5-10.6,0.6s-2.5,7.8,0.6,10.6c22.1,19.8,34.7,48.2,34.7,77.7v32.9
			c0,12.5-0.9,25-2.6,37.4c-0.6,4.1,2.3,7.9,6.4,8.5c0.3,0,0.7,0.1,1,0.1c3.7,0,6.9-2.7,7.4-6.5c1.8-13,2.7-26.3,2.7-39.4v-32.9
			C75.5,366.7,61,334.3,35.8,311.6z"/>
		<path class="st2" d="M0.7,306.1c1,0.5,2.1,0.7,3.2,0.7c2.8,0,5.5-1.6,6.8-4.3c1.8-3.7,0.2-8.2-3.5-10
			c-10.8-5.1-22.3-8.6-34.1-10.3c-4.1-0.6-7.9,2.3-8.5,6.4s2.3,7.9,6.4,8.5C-18.7,298.5-8.7,301.6,0.7,306.1z"/>
		<path class="st2" d="M-44,249c-2.8,0-5.6,0.1-8.4,0.2c-4.1,0.2-7.3,3.8-7.1,7.9c0.2,4.1,3.8,7.3,7.9,7.1c2.5-0.1,5.1-0.2,7.6-0.2
			c75.3,0,136.5,61.2,136.5,136.5v32.9c0,4.1,3.4,7.5,7.5,7.5s7.5-3.4,7.5-7.5v-32.9C107.5,317,39.5,249-44,249z"/>
		<path class="st2" d="M-126,289.7c1.5,0,3-0.4,4.3-1.3c12.5-8.7,26.2-15.2,40.7-19.3c4-1.1,6.3-5.3,5.2-9.3c-1.1-4-5.3-6.3-9.3-5.2
			c-16.2,4.6-31.4,11.7-45.2,21.4c-3.4,2.4-4.2,7-1.9,10.4C-130.7,288.6-128.4,289.7-126,289.7z"/>
		<path class="st2" d="M-180.5,430.2v-29.7c0-34.9,13.2-68.1,37.2-93.6c2.8-3,2.7-7.8-0.3-10.6c-3-2.8-7.8-2.7-10.6,0.3
			c-26.6,28.2-41.3,65.1-41.3,103.9v29.7c0,4.1-1.5,8-4.2,11l-9.2,10.3c-2.8,3.1-2.5,7.8,0.6,10.6c1.4,1.3,3.2,1.9,5,1.9
			c2.1,0,4.1-0.8,5.6-2.5l9.2-10.3C-183.4,445.4-180.5,438-180.5,430.2z"/>
		<path class="st2" d="M130,342.1c-8.2-24.4-21.3-46.5-38.9-65.6c-2.8-3.1-7.5-3.3-10.6-0.4c-3,2.8-3.3,7.5-0.4,10.6
			c16.1,17.6,28.1,37.8,35.7,60.3c1.1,3.1,4,5.1,7.1,5.1c0.8,0,1.6-0.1,2.4-0.4C129.2,350.3,131.3,346,130,342.1z"/>
		<path class="st2" d="M15.2,226.8c-3.9-1.3-8.2,0.7-9.5,4.7c-1.3,3.9,0.7,8.2,4.7,9.5c16.5,5.7,32.1,13.9,46.1,24.4
			c1.3,1,2.9,1.5,4.5,1.5c2.3,0,4.5-1,6-3c2.5-3.3,1.8-8-1.5-10.5C50.2,241.9,33.3,233,15.2,226.8z"/>
		<path class="st2" d="M-160.6,278.9C-129,248.7-87.6,232-44,232c8.1,0,16.2,0.6,24.2,1.7c4.1,0.6,7.9-2.3,8.5-6.4
			c0.6-4.1-2.3-7.9-6.4-8.5c-8.7-1.3-17.5-1.9-26.3-1.9c-47.5,0-92.6,18.1-126.9,51.1c-34.2,32.8-54.3,76.9-56.4,124.1
			c-0.2,4.1,3,7.6,7.2,7.8c0.1,0,0.2,0,0.3,0c4,0,7.3-3.1,7.5-7.2C-210.4,349.5-192,309.1-160.6,278.9z"/>
		<path class="st2" d="M-44,185c-16.8,0-33.5,1.9-49.7,5.8c-4,1-6.5,5-5.6,9c1,4,5,6.5,9,5.6c15.1-3.6,30.6-5.4,46.2-5.4
			c55,0,106.3,21.9,144.6,61.7c1.5,1.5,3.4,2.3,5.4,2.3c1.9,0,3.7-0.7,5.2-2.1c3-2.9,3.1-7.6,0.2-10.6c-19.9-20.7-43.3-37-69.5-48.5
			C14.7,191-14.2,185-44,185z"/>
		<path class="st2" d="M-212.5,278.4c1.4,1.1,3,1.6,4.6,1.6c2.2,0,4.4-1,5.9-2.9c21.4-27.3,49.5-48.7,81.4-61.9
			c3.8-1.6,5.6-6,4.1-9.8s-6-5.6-9.8-4.1c-34.2,14.2-64.5,37.2-87.4,66.5C-216.3,271.1-215.8,275.9-212.5,278.4z"/>
		<path class="st2" d="M-148,191.7c1.1,0,2.2-0.2,3.3-0.7c31.6-15.2,65.5-23,100.7-23c18.4,0,36.7,2.2,54.4,6.4c4,1,8.1-1.5,9-5.5
			c1-4-1.5-8.1-5.5-9C-5,155.3-24.5,153-44,153c-37.5,0-73.6,8.2-107.3,24.5c-3.7,1.8-5.3,6.3-3.5,10
			C-153.5,190.2-150.8,191.7-148,191.7z"/>
		<path class="st2" d="M41.7,184.4c7.7,3.1,15.4,6.6,22.7,10.5c1.1,0.6,2.3,0.9,3.5,0.9c2.7,0,5.3-1.4,6.6-4
			c1.9-3.7,0.5-8.2-3.1-10.1c-7.8-4.2-16-7.9-24.2-11.2c-3.8-1.5-8.2,0.3-9.7,4.2C36,178.5,37.9,182.9,41.7,184.4z"/>
	</g>
</g>
<g id="Layer_2">
	<text id="XMLID_1_" transform="matrix(1 0 0 1 -280 462.1798)" class="st2 st3 st4">&lt;/&gt;</text>
</g>
</svg>
